<?xml version="1.0" encoding="UTF-8" standalone="no"?>
<!-- Created with Inkscape (http://www.inkscape.org/) -->

<svg
   xmlns:dc="http://purl.org/dc/elements/1.1/"
   xmlns:cc="http://creativecommons.org/ns#"
   xmlns:rdf="http://www.w3.org/1999/02/22-rdf-syntax-ns#"
   xmlns:svg="http://www.w3.org/2000/svg"
   xmlns="http://www.w3.org/2000/svg"
   xmlns:sodipodi="http://sodipodi.sourceforge.net/DTD/sodipodi-0.dtd"
   xmlns:inkscape="http://www.inkscape.org/namespaces/inkscape"
   width="84.672997mm"
   height="7.9369998mm"
   viewBox="0 0 84.672997 7.9369998"
   version="1.1"
   id="svg8"
   inkscape:version="0.92.3 (2405546, 2018-03-11)"
   sodipodi:docname="logo.svg">
  <defs
     id="defs2" />
  <sodipodi:namedview
     id="base"
     pagecolor="#ffffff"
     bordercolor="#666666"
     borderopacity="1.0"
     inkscape:pageopacity="0.0"
     inkscape:pageshadow="2"
     inkscape:zoom="2.4779397"
     inkscape:cx="155.72396"
     inkscape:cy="14.999055"
     inkscape:document-units="mm"
     inkscape:current-layer="g848"
     showgrid="false"
     showguides="true"
     inkscape:guide-bbox="true"
     inkscape:window-width="1366"
     inkscape:window-height="700"
     inkscape:window-x="0"
     inkscape:window-y="0"
     inkscape:window-maximized="1">
    <sodipodi:guide
       position="47.813987,190.68899"
       orientation="0,1"
       id="guide16"
       inkscape:locked="false" />
    <sodipodi:guide
       position="44.979166,182.75149"
       orientation="0,1"
       id="guide18"
       inkscape:locked="false" />
  </sodipodi:namedview>
  <metadata
     id="metadata5">
    <rdf:RDF>
      <cc:Work
         rdf:about="">
        <dc:format>image/svg+xml</dc:format>
        <dc:type
           rdf:resource="http://purl.org/dc/dcmitype/StillImage" />
        <dc:title />
      </cc:Work>
    </rdf:RDF>
  </metadata>
  <g
     inkscape:label="Capa 1"
     inkscape:groupmode="layer"
     id="layer1"
     transform="translate(0,-289.063)">
    <g
       id="g828"
       transform="translate(-36.545625,182.75174)">
      <g
         id="g848"
         transform="translate(0.99999989,-1.8923187e-6)">
        <path
           inkscape:connector-curvature="0"
           id="path850"
           style="font-style:normal;font-variant:normal;font-weight:bold;font-stretch:normal;font-size:medium;line-height:1.25;font-family:'PT Sans';-inkscape-font-specification:'PT Sans Bold';letter-spacing:0px;word-spacing:0px;fill:#ffffff;fill-opacity:1;stroke:none;stroke-width:0.26458332"
           d="m 45.478093,106.65118 h 1.375833 v 4.78367 q 0,0.71967 -0.1905,1.23825 -0.1905,0.51858 -0.529166,0.85725 -0.338667,0.33867 -0.8255,0.49742 -0.486834,0.15875 -1.068917,0.15875 -2.815167,0 -2.815167,-2.57175 v -4.96359 h 1.449917 v 4.67784 q 0,0.43391 0.07408,0.74083 0.08467,0.29633 0.254,0.48683 0.169334,0.17992 0.423334,0.26459 0.254,0.0741 0.592666,0.0741 0.66675,0 0.963084,-0.37042 0.296333,-0.37041 0.296333,-1.19591 z" />
        <path
           inkscape:connector-curvature="0"
           id="path852"
           style="font-style:normal;font-variant:normal;font-weight:bold;font-stretch:normal;font-size:medium;line-height:1.25;font-family:'PT Sans';-inkscape-font-specification:'PT Sans Bold';letter-spacing:0px;word-spacing:0px;fill:#ffffff;fill-opacity:1;stroke:none;stroke-width:0.26458332"
           d="m 48.09168,106.72527 q 0.4445,-0.0847 0.973667,-0.127 0.53975,-0.0529 1.068917,-0.0529 0.550333,0 1.100666,0.0953 0.560917,0.0847 1.005417,0.35983 0.4445,0.26459 0.719666,0.75142 0.28575,0.47625 0.28575,1.24883 0,0.6985 -0.243416,1.18534 -0.243417,0.47625 -0.645584,0.78316 -0.402166,0.30692 -0.920749,0.4445 -0.508,0.13759 -1.058334,0.13759 -0.05292,0 -0.169333,0 -0.116417,0 -0.243417,0 -0.127,-0.0106 -0.254,-0.0212 -0.116416,-0.0106 -0.169333,-0.0212 v 2.55059 H 48.09168 Z m 2.159,1.06891 q -0.211666,0 -0.402166,0.0212 -0.1905,0.0106 -0.306917,0.0318 v 2.40242 q 0.04233,0.0106 0.127,0.0212 0.08467,0.0106 0.179917,0.0212 0.09525,0 0.179916,0 0.09525,0 0.137584,0 0.28575,0 0.560916,-0.0529 0.28575,-0.0529 0.508,-0.1905 0.22225,-0.14816 0.34925,-0.40216 0.137584,-0.254 0.137584,-0.66675 0,-0.34925 -0.127,-0.5715 -0.127,-0.23284 -0.338667,-0.37042 -0.201083,-0.13758 -0.465667,-0.1905 -0.264583,-0.0529 -0.53975,-0.0529 z" />
        <path
           inkscape:connector-curvature="0"
           id="path854"
           style="font-style:normal;font-variant:normal;font-weight:bold;font-stretch:normal;font-size:medium;line-height:1.25;font-family:'PT Sans';-inkscape-font-specification:'PT Sans Bold';letter-spacing:0px;word-spacing:0px;fill:#ffffff;fill-opacity:1;stroke:none;stroke-width:0.26458332"
           d="m 54.148158,106.65118 h 4.392083 v 1.29117 h -2.942167 v 1.72508 h 2.677584 v 1.29117 h -2.677584 v 1.80975 h 2.995084 v 1.29117 h -4.445 z" />
        <path
           inkscape:connector-curvature="0"
           id="path856"
           style="font-style:normal;font-variant:normal;font-weight:bold;font-stretch:normal;font-size:medium;line-height:1.25;font-family:'PT Sans';-inkscape-font-specification:'PT Sans Bold';letter-spacing:0px;word-spacing:0px;fill:#ffffff;fill-opacity:1;stroke:none;stroke-width:0.26458332"
           d="m 67.22618,113.7526 q -0.338666,0.24342 -0.867833,0.34925 -0.518583,0.10583 -1.068917,0.10583 -0.66675,0 -1.27,-0.20108 -0.592666,-0.21167 -1.04775,-0.66675 -0.455083,-0.46567 -0.73025,-1.19592 -0.264583,-0.74083 -0.264583,-1.78858 0,-1.09008 0.296333,-1.82033 0.306917,-0.74084 0.783167,-1.18534 0.486833,-0.45508 1.0795,-0.64558 0.592667,-0.20108 1.185333,-0.20108 0.635,0 1.068917,0.0847 0.4445,0.0847 0.73025,0.20109 l -0.28575,1.22766 q -0.243417,-0.11641 -0.582083,-0.16933 -0.328084,-0.0529 -0.804334,-0.0529 -0.878416,0 -1.418166,0.62442 -0.529167,0.62442 -0.529167,1.93675 0,0.5715 0.127,1.04775 0.127,0.46567 0.381,0.80433 0.264583,0.32809 0.645583,0.51859 0.391584,0.17991 0.899584,0.17991 0.47625,0 0.804333,-0.0952 0.328083,-0.0953 0.5715,-0.24341 z" />
        <path
           inkscape:connector-curvature="0"
           id="path858"
           style="font-style:normal;font-variant:normal;font-weight:bold;font-stretch:normal;font-size:medium;line-height:1.25;font-family:'PT Sans';-inkscape-font-specification:'PT Sans Bold';letter-spacing:0px;word-spacing:0px;fill:#ffffff;fill-opacity:1;stroke:none;stroke-width:0.26458332"
           d="m 67.537232,110.35535 q 0,-1.85208 0.814916,-2.84692 0.814917,-1.00541 2.328334,-1.00541 0.79375,0 1.386416,0.27516 0.592667,0.27517 0.98425,0.78317 0.391584,0.508 0.582084,1.21708 0.1905,0.70909 0.1905,1.57692 0,1.85208 -0.8255,2.8575 -0.814917,0.99483 -2.31775,0.99483 -0.804334,0 -1.397,-0.27516 -0.592667,-0.27517 -0.98425,-0.78317 -0.381,-0.508 -0.5715,-1.21708 -0.1905,-0.70909 -0.1905,-1.57692 z m 1.524,0 q 0,0.56092 0.09525,1.03717 0.09525,0.46566 0.28575,0.80433 0.201083,0.33867 0.508,0.52917 0.306916,0.1905 0.73025,0.1905 0.772583,0 1.195916,-0.60325 0.423334,-0.60325 0.423334,-1.95792 0,-0.53975 -0.09525,-1.00542 -0.08467,-0.46566 -0.275167,-0.81491 -0.1905,-0.34925 -0.497417,-0.53975 -0.306916,-0.20109 -0.751416,-0.20109 -0.772584,0 -1.195917,0.62442 -0.423333,0.61383 -0.423333,1.93675 z" />
        <path
           inkscape:connector-curvature="0"
           id="path860"
           style="font-style:normal;font-variant:normal;font-weight:bold;font-stretch:normal;font-size:medium;line-height:1.25;font-family:'PT Sans';-inkscape-font-specification:'PT Sans Bold';letter-spacing:0px;word-spacing:0px;fill:#ffffff;fill-opacity:1;stroke:none;stroke-width:0.26458332"
           d="m 76.701571,110.1966 -0.582083,-1.16417 h -0.05292 l 0.169333,1.16417 v 3.86292 h -1.375833 v -7.46125 h 1.058333 l 2.804583,3.94758 0.560917,1.13242 h 0.05292 l -0.169334,-1.13242 v -3.89467 h 1.375834 v 7.46125 h -1.058334 z" />
        <path
           inkscape:connector-curvature="0"
           id="path862"
           style="font-style:normal;font-variant:normal;font-weight:bold;font-stretch:normal;font-size:medium;line-height:1.25;font-family:'PT Sans';-inkscape-font-specification:'PT Sans Bold';letter-spacing:0px;word-spacing:0px;fill:#ffffff;fill-opacity:1;stroke:none;stroke-width:0.26458332"
           d="m 81.805383,106.65118 h 4.392084 v 1.29117 H 83.2553 v 1.83092 h 2.709333 v 1.29116 H 83.2553 v 2.99509 h -1.449917 z" />
        <path
           inkscape:connector-curvature="0"
           id="path864"
           style="font-style:normal;font-variant:normal;font-weight:bold;font-stretch:normal;font-size:medium;line-height:1.25;font-family:'PT Sans';-inkscape-font-specification:'PT Sans Bold';letter-spacing:0px;word-spacing:0px;fill:#ffffff;fill-opacity:1;stroke:none;stroke-width:0.26458332"
           d="m 87.179731,106.65118 h 4.392083 v 1.29117 h -2.942166 v 1.72508 h 2.677583 v 1.29117 h -2.677583 v 1.80975 h 2.995083 v 1.29117 h -4.445 z" />
        <path
           inkscape:connector-curvature="0"
           id="path866"
           style="font-style:normal;font-variant:normal;font-weight:bold;font-stretch:normal;font-size:medium;line-height:1.25;font-family:'PT Sans';-inkscape-font-specification:'PT Sans Bold';letter-spacing:0px;word-spacing:0px;fill:#ffffff;fill-opacity:1;stroke:none;stroke-width:0.26458332"
           d="m 95.894941,112.06985 q 0,-0.33867 -0.254,-0.55033 -0.243417,-0.21167 -0.624417,-0.381 -0.370417,-0.17992 -0.814917,-0.35984 -0.433916,-0.1905 -0.814916,-0.45508 -0.370417,-0.27517 -0.624417,-0.67733 -0.243417,-0.40217 -0.243417,-1.02659 0,-0.53975 0.179917,-0.93133 0.179917,-0.40217 0.508,-0.66675 0.338667,-0.26458 0.79375,-0.39158 0.455083,-0.127 1.016,-0.127 0.645583,0 1.217083,0.11641 0.5715,0.10584 0.941917,0.3175 l -0.455083,1.21709 q -0.232834,-0.14817 -0.6985,-0.26459 -0.465667,-0.127 -1.005417,-0.127 -0.508,0 -0.783167,0.20109 -0.264583,0.20108 -0.264583,0.53975 0,0.3175 0.243417,0.52916 0.254,0.21167 0.624416,0.39159 0.381,0.17991 0.814917,0.37041 0.4445,0.1905 0.814917,0.46567 0.381,0.26458 0.624416,0.66675 0.254,0.39158 0.254,0.98425 0,0.59267 -0.201083,1.02658 -0.1905,0.42334 -0.550333,0.70909 -0.34925,0.28575 -0.85725,0.42333 -0.497417,0.13758 -1.100667,0.13758 -0.79375,0 -1.397,-0.14816 -0.60325,-0.14817 -0.889,-0.29634 l 0.465667,-1.23825 q 0.116416,0.0635 0.296333,0.13759 0.1905,0.0741 0.423333,0.13758 0.232834,0.0635 0.486834,0.10583 0.264583,0.0423 0.53975,0.0423 0.645583,0 0.98425,-0.21167 0.34925,-0.22225 0.34925,-0.66675 z" />
        <path
           inkscape:connector-curvature="0"
           id="path868"
           style="font-style:normal;font-variant:normal;font-weight:bold;font-stretch:normal;font-size:medium;line-height:1.25;font-family:'PT Sans';-inkscape-font-specification:'PT Sans Bold';letter-spacing:0px;word-spacing:0px;fill:#ffffff;fill-opacity:1;stroke:none;stroke-width:0.26458332"
           d="m 103.56042,107.94235 h -2.159 v 6.11717 h -1.449919 v -6.11717 h -2.169584 v -1.29117 h 5.778503 z" />
        <path
           inkscape:connector-curvature="0"
           id="path870"
           style="font-style:normal;font-variant:normal;font-weight:bold;font-stretch:normal;font-size:medium;line-height:1.25;font-family:'PT Sans';-inkscape-font-specification:'PT Sans Bold';letter-spacing:0px;word-spacing:0px;fill:#ffffff;fill-opacity:1;stroke:none;stroke-width:0.26458332"
           d="m 106.01807,106.65118 h 1.2065 l -0.381,2.286 h -0.8255 z" />
        <path
           inkscape:connector-curvature="0"
           id="path872"
           style="font-style:normal;font-variant:normal;font-weight:bold;font-stretch:normal;font-size:medium;line-height:1.25;font-family:'PT Sans';-inkscape-font-specification:'PT Sans Bold';letter-spacing:0px;word-spacing:0px;fill:#ffffff;fill-opacity:1;stroke:none;stroke-width:0.26458332"
           d="m 108.82166,112.89535 h 1.47108 v -4.18042 l 0.15875,-0.71966 -0.508,0.62441 -0.94192,0.64559 -0.58208,-0.79375 2.413,-1.94734 h 0.77258 v 6.37117 h 1.43934 v 1.16417 h -4.22275 z" />
        <path
           inkscape:connector-curvature="0"
           id="path874"
           style="font-style:normal;font-variant:normal;font-weight:bold;font-stretch:normal;font-size:medium;line-height:1.25;font-family:'PT Sans';-inkscape-font-specification:'PT Sans Bold';letter-spacing:0px;word-spacing:0px;fill:#ffffff;fill-opacity:1;stroke:none;stroke-width:0.26458332"
           d="m 114.22346,108.96893 q 0,-0.53975 0.15875,-0.99483 0.16933,-0.45508 0.47625,-0.77258 0.3175,-0.32809 0.762,-0.508 0.45508,-0.1905 1.03716,-0.1905 1.19592,0 1.87325,0.71966 0.68792,0.70909 0.68792,2.07434 0,1.22766 -0.3175,2.12725 -0.30692,0.889 -0.83608,1.49225 -0.51859,0.59266 -1.2065,0.91016 -0.68792,0.3175 -1.44992,0.381 l -0.29633,-1.0795 q 0.58208,-0.0741 1.03716,-0.28575 0.45509,-0.21166 0.78317,-0.51858 0.32808,-0.3175 0.52917,-0.70908 0.21166,-0.40217 0.29633,-0.85725 -0.254,0.27516 -0.55033,0.381 -0.28575,0.10583 -0.77259,0.10583 -0.40216,0 -0.80433,-0.13758 -0.39158,-0.13759 -0.70908,-0.41275 -0.30692,-0.28575 -0.508,-0.70909 -0.1905,-0.43391 -0.1905,-1.016 z m 1.3335,-0.0741 q 0,0.60325 0.33866,0.91017 0.33867,0.30691 0.84667,0.30691 0.43392,0 0.70908,-0.13758 0.27517,-0.13758 0.42334,-0.33867 0.0318,-0.22225 0.0318,-0.42333 0,-0.29633 -0.0741,-0.58208 -0.0741,-0.28575 -0.23283,-0.508 -0.14817,-0.22225 -0.39158,-0.34925 -0.23284,-0.13759 -0.56092,-0.13759 -0.51858,0 -0.80433,0.33867 -0.28575,0.32808 -0.28575,0.92075 z" />
        <rect
           style="fill:#fe4918;fill-opacity:1;stroke:none;stroke-width:0.23529185"
           id="rect14"
           width="3.5229731"
           height="7.937499"
           x="36.545456"
           y="106.31101" />
      </g>
    </g>
  </g>
</svg>
